<svg width="43" height="40" viewBox="0 0 43 40" fill="none" xmlns="http://www.w3.org/2000/svg">
<path d="M1.33398 6.66699C1.33398 5.60613 1.75541 4.58871 2.50556 3.83857C3.2557 3.08842 4.27312 2.66699 5.33398 2.66699H37.334C38.3949 2.66699 39.4123 3.08842 40.1624 3.83857C40.9126 4.58871 41.334 5.60613 41.334 6.66699V9.88833L21.334 21.1363L1.33398 9.88833V6.66699Z" fill="#DA3540"/>
<path d="M1.33398 12.9463V33.333C1.33398 34.3938 1.75541 35.4112 2.50556 36.1614C3.2557 36.9115 4.27312 37.333 5.33398 37.333H37.334C38.3949 37.333 39.4123 36.9115 40.1624 36.1614C40.9126 35.4112 41.334 34.3938 41.334 33.333V12.9463L21.334 24.197L1.33398 12.9463Z" fill="#DA3540"/>
</svg>
