<svg width="40" height="40" viewBox="0 0 40 40" fill="none" xmlns="http://www.w3.org/2000/svg">
<path d="M20.0007 19.1663C18.8956 19.1663 17.8358 18.7274 17.0544 17.946C16.273 17.1646 15.834 16.1047 15.834 14.9997C15.834 13.8946 16.273 12.8348 17.0544 12.0534C17.8358 11.272 18.8956 10.833 20.0007 10.833C21.1057 10.833 22.1655 11.272 22.9469 12.0534C23.7283 12.8348 24.1673 13.8946 24.1673 14.9997C24.1673 15.5468 24.0595 16.0887 23.8502 16.5942C23.6408 17.0997 23.3338 17.559 22.9469 17.946C22.56 18.3329 22.1007 18.6398 21.5952 18.8492C21.0896 19.0586 20.5478 19.1663 20.0007 19.1663ZM20.0007 3.33301C16.9065 3.33301 13.939 4.56217 11.7511 6.7501C9.56315 8.93802 8.33398 11.9055 8.33398 14.9997C8.33398 23.7497 20.0007 36.6663 20.0007 36.6663C20.0007 36.6663 31.6673 23.7497 31.6673 14.9997C31.6673 11.9055 30.4382 8.93802 28.2502 6.7501C26.0623 4.56217 23.0948 3.33301 20.0007 3.33301Z" fill="#DA3540"/>
</svg>
