<svg width="19" height="20" viewBox="0 0 19 20" fill="none" xmlns="http://www.w3.org/2000/svg">
<g id="mi:email">
<path id="Vector" d="M1.58203 5.24935C1.58203 4.82942 1.74885 4.4267 2.04578 4.12976C2.34271 3.83283 2.74544 3.66602 3.16536 3.66602H15.832C16.252 3.66602 16.6547 3.83283 16.9516 4.12976C17.2485 4.4267 17.4154 4.82942 17.4154 5.24935V14.7493C17.4154 15.1693 17.2485 15.572 16.9516 15.8689C16.6547 16.1659 16.252 16.3327 15.832 16.3327H3.16536C2.74544 16.3327 2.34271 16.1659 2.04578 15.8689C1.74885 15.572 1.58203 15.1693 1.58203 14.7493V5.24935ZM4.36791 5.24935L9.4987 9.73889L14.6295 5.24935H4.36791ZM15.832 6.30147L10.0204 11.3871C9.87604 11.5136 9.69064 11.5834 9.4987 11.5834C9.30676 11.5834 9.12136 11.5136 8.97699 11.3871L3.16536 6.30147V14.7493H15.832V6.30147Z" fill="white"/>
</g>
</svg>
