<svg width="80" height="80" viewBox="0 0 80 80" fill="none" xmlns="http://www.w3.org/2000/svg">
<g id="mission" clip-path="url(#clip0_204_10905)">
<path id="Vector" d="M40.1332 27.9094C41.2342 27.9094 42.126 27.0171 42.126 25.9166C42.126 24.8162 41.2342 23.9238 40.1332 23.9238C31.3288 23.9238 24.1914 31.0613 24.1914 39.8662C24.1914 48.6705 31.3288 55.8079 40.1332 55.8079C48.9381 55.8079 56.0755 48.6705 56.0755 39.8662C56.0755 38.7651 55.1832 37.8734 54.0827 37.8734C52.9823 37.8734 52.0899 38.7651 52.0899 39.8662C52.0899 46.4696 46.7372 51.823 40.1332 51.823C33.5298 51.823 28.1764 46.4696 28.1764 39.8662C28.1764 33.2622 33.5298 27.9094 40.1332 27.9094Z" fill="white"/>
<path id="Vector_2" d="M78.1561 28.0304C77.81 26.9849 76.6821 26.4178 75.6359 26.7639C74.6142 27.102 74.0454 28.1897 74.3499 29.2218C80.3094 48.1994 69.7564 68.4149 50.7788 74.3743C31.8018 80.3338 11.5863 69.7808 5.62686 50.8032C-0.333211 31.8256 10.2204 11.6101 29.1974 5.65066C36.2225 3.44485 43.7543 3.44485 50.7788 5.65066C51.8335 5.96865 52.9461 5.37173 53.2641 4.31704C53.5772 3.27823 53.0029 2.18021 51.9708 1.84451C30.8984 -4.76681 8.45584 6.9562 1.84452 28.0292C-4.7668 49.1015 6.95682 71.5441 28.0292 78.1554C49.1021 84.7668 71.5441 73.0438 78.1555 51.9708C80.6005 44.1778 80.6005 35.8233 78.1561 28.0304Z" fill="white"/>
<path id="Vector_3" d="M43.9281 14.2361C43.9384 13.1014 43.0669 12.153 41.9353 12.0681C41.3402 12.0175 40.7445 11.9668 40.1335 11.9668C24.7252 11.9668 12.2344 24.4576 12.2344 39.8659C12.2344 55.2736 24.7252 67.7645 40.1335 67.7645C55.5412 67.7645 68.032 55.2736 68.032 39.8659C68.032 39.1451 67.9881 38.4249 67.8996 37.7096C67.7403 36.6158 66.7247 35.8584 65.6309 36.0177C64.5372 36.1764 63.7797 37.1926 63.9384 38.2863C63.9445 38.3278 63.9518 38.3687 63.9604 38.4102C64.0037 38.893 64.0464 39.3715 64.0464 39.8647C64.0471 53.0721 53.3409 63.7783 40.1341 63.7795C26.9267 63.7801 16.2206 53.0733 16.22 39.8665C16.2194 26.6598 26.9249 15.953 40.1323 15.9524H40.1329C40.6273 15.9524 41.1064 15.9951 41.588 16.0378L41.9615 16.069C43.0028 16.1135 43.8829 15.3054 43.9268 14.2642C43.9274 14.2544 43.9274 14.2452 43.9281 14.2361Z" fill="white"/>
<path id="Vector_4" d="M52.091 17.947V25.093L38.7256 38.4585C37.9339 39.2232 37.912 40.4848 38.6767 41.2764C39.4415 42.0681 40.7031 42.09 41.4947 41.3253C41.5112 41.3094 41.5277 41.2929 41.5435 41.2764L54.909 27.911H62.055C62.5836 27.911 63.0901 27.701 63.4643 27.3269L75.4204 15.3701C76.1986 14.5919 76.1986 13.3303 75.4204 12.5521C75.0469 12.1786 74.5403 11.9686 74.0118 11.9686H68.0334V5.99023C68.0334 4.88977 67.141 3.99744 66.04 3.99805C65.512 3.99805 65.0054 4.20801 64.6319 4.58154L52.6751 16.5383C52.301 16.9118 52.091 17.4184 52.091 17.947ZM56.0766 18.7722L64.0478 10.801V13.9614C64.0478 15.0619 64.9401 15.9542 66.0406 15.9542H69.201L61.2298 23.9254H56.0766V18.7722Z" fill="white"/>
</g>
<defs>
<clipPath id="clip0_204_10905">
<rect width="80" height="80" fill="white"/>
</clipPath>
</defs>
</svg>
