<svg width="40" height="40" viewBox="0 0 40 40" fill="none" xmlns="http://www.w3.org/2000/svg">
<g clip-path="url(#clip0_204_10338)">
<path fill-rule="evenodd" clip-rule="evenodd" d="M27.587 36.8884C25.187 36.8001 18.3853 35.8601 11.262 28.7384C4.14033 21.6151 3.20199 14.8151 3.11199 12.4134C2.97866 8.75345 5.78199 5.19845 9.02033 3.81012C9.41029 3.64173 9.83733 3.57762 10.2595 3.62407C10.6818 3.67053 11.0846 3.82596 11.4287 4.07511C14.0953 6.01845 15.9353 8.95845 17.5153 11.2701C17.863 11.778 18.0116 12.396 17.9329 13.0064C17.8542 13.6169 17.5537 14.177 17.0887 14.5801L13.837 16.9951C13.6799 17.1086 13.5693 17.2752 13.5258 17.464C13.4823 17.6528 13.5087 17.851 13.6003 18.0218C14.337 19.3601 15.647 21.3534 17.147 22.8534C18.647 24.3534 20.7353 25.7501 22.167 26.5701C22.3465 26.6709 22.5578 26.699 22.7574 26.6488C22.9571 26.5986 23.1299 26.4738 23.2403 26.3001L25.357 23.0784C25.7461 22.5615 26.3202 22.2152 26.959 22.1121C27.5977 22.0089 28.2516 22.1569 28.7837 22.5251C31.1287 24.1484 33.8653 25.9568 35.8687 28.5218C36.138 28.8683 36.3094 29.2808 36.3648 29.7162C36.4202 30.1516 36.3577 30.5938 36.1837 30.9968C34.7887 34.2518 31.2587 37.0234 27.587 36.8884Z" fill="#DA3540"/>
</g>
<defs>
<clipPath id="clip0_204_10338">
<rect width="40" height="40" fill="white"/>
</clipPath>
</defs>
</svg>
