<svg width="80" height="80" viewBox="0 0 80 80" fill="none" xmlns="http://www.w3.org/2000/svg">
<g id="vision 1">
<g id="Outline">
<g id="Group">
<path id="Vector" d="M47.3289 10.5709C47.4458 10.6054 47.567 10.6231 47.6889 10.6234C47.9576 10.6232 48.219 10.5364 48.4345 10.3758C48.65 10.2153 48.808 9.98959 48.8851 9.73219L50.3376 4.89594C50.4327 4.57835 50.3978 4.23596 50.2405 3.94411C50.0832 3.65226 49.8164 3.43484 49.4989 3.33969C49.1813 3.24455 48.8389 3.27946 48.547 3.43676C48.2552 3.59406 48.0377 3.86085 47.9426 4.17844L46.4901 9.01469C46.443 9.17195 46.4273 9.33695 46.4439 9.50027C46.4606 9.66359 46.5092 9.82203 46.5871 9.96655C46.665 10.1111 46.7706 10.2388 46.8979 10.3425C47.0251 10.4462 47.1716 10.5238 47.3289 10.5709Z" fill="white"/>
<path id="Vector_2" d="M55.5719 12.5704C55.863 12.7288 56.205 12.7651 56.5229 12.6713C56.8407 12.5775 57.1083 12.3614 57.2669 12.0704L59.6869 7.6129C59.7652 7.46861 59.8144 7.3103 59.8316 7.147C59.8488 6.98369 59.8337 6.8186 59.7871 6.66115C59.7405 6.5037 59.6633 6.35696 59.56 6.22933C59.4567 6.1017 59.3293 5.99566 59.185 5.91728C59.0407 5.8389 58.8824 5.7897 58.7191 5.7725C58.5558 5.7553 58.3907 5.77044 58.2332 5.81704C58.0758 5.86365 57.9291 5.9408 57.8014 6.04412C57.6738 6.14743 57.5677 6.27486 57.4894 6.41915L55.0694 10.8754C54.991 11.0197 54.9419 11.178 54.9248 11.3413C54.9077 11.5045 54.9229 11.6696 54.9695 11.827C55.0162 11.9844 55.0934 12.1311 55.1967 12.2586C55.3001 12.3862 55.4276 12.4921 55.5719 12.5704Z" fill="white"/>
<path id="Vector_3" d="M64.9288 16.6464C65.1109 16.6465 65.2908 16.6069 65.456 16.5302C65.6211 16.4536 65.7676 16.3418 65.885 16.2026L69.1713 12.3001C69.2795 12.175 69.3618 12.0295 69.4135 11.8723C69.4651 11.7151 69.485 11.5492 69.472 11.3842C69.459 11.2192 69.4133 11.0585 69.3377 10.9113C69.2621 10.7641 69.158 10.6334 69.0315 10.5267C68.905 10.4201 68.7586 10.3396 68.6007 10.29C68.4428 10.2403 68.2767 10.2225 68.1119 10.2376C67.9471 10.2527 67.7869 10.3004 67.6407 10.3778C67.4945 10.4553 67.3651 10.561 67.26 10.6889L63.9738 14.5914C63.8205 14.7734 63.7224 14.9955 63.691 15.2314C63.6596 15.4673 63.6962 15.7073 63.7965 15.9232C63.8968 16.139 64.0566 16.3217 64.2572 16.4498C64.4578 16.5779 64.6908 16.6461 64.9288 16.6464Z" fill="white"/>
<path id="Vector_4" d="M72.5525 22.8562C72.8465 22.8563 73.1311 22.7527 73.3563 22.5637L77.2313 19.3137C77.4773 19.0984 77.6293 18.7952 77.6544 18.4692C77.6796 18.1432 77.576 17.8203 77.3658 17.5698C77.1557 17.3192 76.8557 17.161 76.5303 17.129C76.2049 17.0971 75.8799 17.1939 75.625 17.3987L71.75 20.6487C71.554 20.8138 71.4134 21.0351 71.3473 21.2826C71.2813 21.5302 71.2929 21.7921 71.3806 22.0329C71.4683 22.2736 71.6279 22.4816 71.8377 22.6287C72.0476 22.7757 72.2975 22.8547 72.5538 22.855L72.5525 22.8562Z" fill="white"/>
<path id="Vector_5" d="M14.1134 16.2019C14.2185 16.3298 14.3479 16.4355 14.4941 16.513C14.6403 16.5904 14.8005 16.6381 14.9653 16.6532C15.1301 16.6682 15.2962 16.6505 15.4541 16.6008C15.612 16.5512 15.7584 16.4707 15.8849 16.3641C16.0114 16.2574 16.1155 16.1267 16.1911 15.9795C16.2667 15.8323 16.3124 15.6715 16.3254 15.5066C16.3384 15.3416 16.3185 15.1757 16.2669 15.0185C16.2152 14.8612 16.1329 14.7158 16.0247 14.5907L12.7384 10.6882C12.5233 10.4395 12.2189 10.2856 11.8912 10.2597C11.5634 10.2339 11.2387 10.3382 10.9873 10.5502C10.7359 10.7621 10.5781 11.0645 10.5482 11.3919C10.5182 11.7193 10.6184 12.0454 10.8272 12.2994L14.1134 16.2019Z" fill="white"/>
<path id="Vector_6" d="M22.7357 12.0685C22.814 12.2127 22.92 12.3402 23.0475 12.4435C23.1751 12.5469 23.3218 12.6241 23.4791 12.6707C23.6365 12.7174 23.8016 12.7326 23.9649 12.7155C24.1281 12.6984 24.2864 12.6493 24.4307 12.571C24.575 12.4927 24.7025 12.3867 24.8058 12.2591C24.9091 12.1316 24.9864 11.9849 25.033 11.8275C25.0797 11.6701 25.0949 11.5051 25.0778 11.3418C25.0606 11.1785 25.0115 11.0202 24.9332 10.876L22.5132 6.4172C22.3549 6.1258 22.0873 5.90921 21.7693 5.81509C21.4514 5.72097 21.109 5.75703 20.8176 5.91533C20.5262 6.07363 20.3096 6.34121 20.2155 6.6592C20.1214 6.97719 20.1574 7.31955 20.3157 7.61095L22.7357 12.0685Z" fill="white"/>
<path id="Vector_7" d="M6.68375 22.5957C6.81299 22.7022 6.96232 22.7817 7.12286 22.8294C7.28341 22.877 7.4519 22.892 7.61832 22.8733C7.78475 22.8546 7.94573 22.8026 8.09169 22.7205C8.23765 22.6384 8.36562 22.5278 8.468 22.3952C8.57038 22.2627 8.64508 22.1109 8.68766 21.949C8.73025 21.787 8.73986 21.6181 8.71591 21.4523C8.69196 21.2866 8.63495 21.1273 8.54825 20.984C8.46156 20.8408 8.34696 20.7163 8.21125 20.6182L4.51375 17.762C4.38451 17.6554 4.23519 17.576 4.07464 17.5283C3.9141 17.4806 3.74561 17.4657 3.57918 17.4844C3.41275 17.5031 3.25177 17.555 3.10581 17.6372C2.95985 17.7193 2.83189 17.8299 2.72951 17.9624C2.62713 18.095 2.55243 18.2467 2.50984 18.4087C2.46725 18.5707 2.45765 18.7396 2.4816 18.9053C2.50554 19.0711 2.56256 19.2303 2.64925 19.3736C2.73594 19.5169 2.85054 19.6413 2.98625 19.7395L6.68375 22.5957Z" fill="white"/>
<path id="Vector_8" d="M31.1145 9.73219C31.1916 9.98959 31.3496 10.2153 31.5651 10.3758C31.7805 10.5364 32.042 10.6232 32.3107 10.6234C32.4326 10.6231 32.5538 10.6054 32.6707 10.5709C32.828 10.5238 32.9744 10.4462 33.1017 10.3425C33.2289 10.2388 33.3345 10.1111 33.4124 9.96655C33.4903 9.82203 33.539 9.66359 33.5556 9.50027C33.5723 9.33695 33.5566 9.17195 33.5095 9.01469L32.057 4.17844C32.0098 4.02118 31.9322 3.87475 31.8285 3.74749C31.7248 3.62023 31.5971 3.51464 31.4525 3.43676C31.308 3.35887 31.1496 3.31021 30.9863 3.29356C30.823 3.2769 30.658 3.29258 30.5007 3.33969C30.3435 3.3868 30.197 3.46443 30.0698 3.56813C29.9425 3.67184 29.8369 3.7996 29.759 3.94411C29.6811 4.08862 29.6325 4.24705 29.6158 4.41037C29.5992 4.57369 29.6148 4.73868 29.662 4.89594L31.1145 9.73219Z" fill="white"/>
<path id="Vector_9" d="M40 10C40.3315 10 40.6495 9.8683 40.8839 9.63388C41.1183 9.39946 41.25 9.08152 41.25 8.75V3.75C41.25 3.41848 41.1183 3.10054 40.8839 2.86612C40.6495 2.6317 40.3315 2.5 40 2.5C39.6685 2.5 39.3505 2.6317 39.1161 2.86612C38.8817 3.10054 38.75 3.41848 38.75 3.75V8.75C38.75 9.08152 38.8817 9.39946 39.1161 9.63388C39.3505 9.8683 39.6685 10 40 10Z" fill="white"/>
<path id="Vector_10" d="M23.0077 48.8286C16.1086 45.6802 10.0543 40.941 5.34143 34.9998C7.7433 31.9999 10.4802 29.2843 13.4989 26.9061C13.7598 26.7013 13.9287 26.4014 13.9685 26.0721C14.0082 25.7429 13.9155 25.4113 13.7108 25.1504C13.5061 24.8895 13.2061 24.7206 12.8769 24.6809C12.5476 24.6412 12.2161 24.7338 11.9552 24.9386C8.52036 27.6479 5.43251 30.7702 2.76143 34.2348C2.59195 34.4538 2.5 34.7229 2.5 34.9998C2.5 35.2767 2.59195 35.5458 2.76143 35.7648C7.81298 42.3825 14.4172 47.6537 21.9902 51.1123C22.293 51.2472 22.6371 51.2563 22.9466 51.1376C23.2562 51.0189 23.5059 50.782 23.6408 50.4792C23.7757 50.1763 23.7848 49.8323 23.6661 49.5227C23.5474 49.2132 23.3105 48.9635 23.0077 48.8286Z" fill="white"/>
<path id="Vector_11" d="M77.2387 35.765C77.4082 35.546 77.5002 35.2769 77.5002 35C77.5002 34.7231 77.4082 34.454 77.2387 34.235C67.7737 22.01 54.2 15 40 15C31.4303 15.0346 23.05 17.5241 15.8512 22.1738C15.5718 22.3521 15.3746 22.6342 15.3031 22.9579C15.2316 23.2817 15.2916 23.6205 15.47 23.9C15.6484 24.1795 15.9304 24.3766 16.2542 24.4481C16.5779 24.5196 16.9168 24.4596 17.1962 24.2812C20.3686 22.2578 23.7901 20.6544 27.375 19.5113C25.0615 21.3907 23.1985 23.7646 21.9228 26.4585C20.6471 29.1525 19.9912 32.098 20.0032 35.0787C20.0152 38.0593 20.6948 40.9995 21.9921 43.683C23.2894 46.3666 25.1715 48.7255 27.5 50.5863V52.5C26.5054 52.5 25.5516 52.8951 24.8483 53.5984C24.1451 54.3016 23.75 55.2554 23.75 56.25C23.75 57.2446 24.1451 58.1984 24.8483 58.9016C25.5516 59.6049 26.5054 60 27.5 60H52.5C52.8315 60 53.1495 60.1317 53.3839 60.3661C53.6183 60.6005 53.75 60.9185 53.75 61.25C53.75 61.5815 53.6183 61.8995 53.3839 62.1339C53.1495 62.3683 52.8315 62.5 52.5 62.5H27.5C27.1685 62.5 26.8505 62.6317 26.6161 62.8661C26.3817 63.1005 26.25 63.4185 26.25 63.75C26.25 64.0815 26.3817 64.3995 26.6161 64.6339C26.8505 64.8683 27.1685 65 27.5 65C27.5 68.3152 28.817 71.4946 31.1612 73.8388C33.5054 76.183 36.6848 77.5 40 77.5C43.3152 77.5 46.4946 76.183 48.8388 73.8388C51.183 71.4946 52.5 68.3152 52.5 65C53.2253 65.0032 53.9358 64.7951 54.5447 64.4011C55.1537 64.0071 55.6347 63.4443 55.929 62.7814C56.2233 62.1186 56.3182 61.3843 56.2021 60.6684C56.0859 59.9524 55.7638 59.2858 55.275 58.75C55.7638 58.2142 56.0859 57.5476 56.2021 56.8316C56.3182 56.1157 56.2233 55.3814 55.929 54.7186C55.6347 54.0557 55.1537 53.4929 54.5447 53.0989C53.9358 52.7049 53.2253 52.4968 52.5 52.5V50.5863C54.8467 48.7239 56.7407 46.3539 58.0397 43.6543C59.3387 40.9547 60.0089 37.9958 60 35C59.997 33.5641 59.8403 32.1326 59.5325 30.73C59.4989 30.5682 59.4336 30.4147 59.3404 30.2783C59.2471 30.142 59.1278 30.0254 58.9892 29.9355C58.8506 29.8455 58.6956 29.7839 58.533 29.7542C58.3705 29.7246 58.2037 29.7274 58.0423 29.7626C57.8809 29.7978 57.728 29.8646 57.5926 29.9593C57.4572 30.0539 57.3418 30.1744 57.2533 30.3139C57.1647 30.4534 57.1047 30.609 57.0767 30.7719C57.0486 30.9347 57.0532 31.1014 57.09 31.2625C57.3599 32.4901 57.4973 33.7431 57.5 35C57.5071 37.7147 56.8776 40.3932 55.6619 42.8205C54.4462 45.2478 52.6782 47.3561 50.5 48.9762C50.3448 49.0927 50.2187 49.2437 50.132 49.4172C50.0452 49.5908 50 49.7822 50 49.9762V52.5H45V43.65C47.0498 42.4733 48.6142 40.6058 49.4134 38.3814C50.2126 36.1571 50.1946 33.721 49.3625 31.5088C49.2803 31.2892 49.1381 31.0972 48.9519 30.9546C48.7658 30.812 48.5434 30.7247 48.31 30.7025C48.0766 30.6784 47.8411 30.7212 47.631 30.8259C47.421 30.9306 47.2451 31.0929 47.1237 31.2938C46.9042 31.6612 46.5932 31.9655 46.2209 32.1769C45.8487 32.3883 45.4281 32.4997 45 32.5C44.337 32.5 43.7011 32.2366 43.2322 31.7678C42.7634 31.2989 42.5 30.663 42.5 30C42.5 29.5718 42.611 29.151 42.8222 28.7786C43.0334 28.4061 43.3376 28.0948 43.705 27.875C43.905 27.7527 44.0665 27.5767 44.1712 27.367C44.2759 27.1573 44.3196 26.9223 44.2972 26.689C44.2747 26.4557 44.1872 26.2334 44.0444 26.0475C43.9017 25.8615 43.7096 25.7195 43.49 25.6375C41.9784 25.0689 40.3513 24.8758 38.7486 25.0747C37.1459 25.2736 35.6154 25.8586 34.2886 26.7795C32.9618 27.7003 31.8784 28.9294 31.1314 30.3613C30.3844 31.7932 29.9962 33.385 30 35C30.0069 36.7526 30.472 38.4729 31.3491 39.9903C32.2262 41.5076 33.4848 42.7692 35 43.65V52.5H30V49.9738C30 49.7797 29.9548 49.5883 29.868 49.4147C29.7812 49.2412 29.6552 49.0902 29.5 48.9738C27.4035 47.3972 25.6885 45.3692 24.4821 43.04C23.2756 40.7108 22.6085 38.14 22.5303 35.518C22.452 32.8961 22.9646 30.2901 24.03 27.8931C25.0954 25.4961 26.6863 23.3694 28.6851 21.6706C30.6838 19.9718 33.039 18.7443 35.5764 18.0792C38.1138 17.414 40.7683 17.3281 43.3434 17.8279C45.9185 18.3277 48.3481 19.4003 50.4525 20.9664C52.5568 22.5325 54.2819 24.5519 55.5 26.875C55.5763 27.0204 55.6805 27.1493 55.8067 27.2543C55.9328 27.3594 56.0784 27.4386 56.2352 27.4874C56.392 27.5362 56.5568 27.5537 56.7203 27.5388C56.8838 27.5239 57.0428 27.477 57.1881 27.4006C57.3335 27.3243 57.4624 27.2201 57.5675 27.0939C57.6725 26.9678 57.7517 26.8222 57.8006 26.6654C57.8494 26.5087 57.8668 26.3438 57.8519 26.1803C57.837 26.0168 57.7901 25.8579 57.7137 25.7125C56.4632 23.3306 54.7467 21.2243 52.6662 19.5187C61.3509 22.4214 68.9958 27.8032 74.6575 35C69.9446 40.9412 63.8903 45.6804 56.9912 48.8288C56.8413 48.8956 56.706 48.9913 56.593 49.1104C56.48 49.2295 56.3916 49.3697 56.3328 49.5229C56.274 49.6762 56.246 49.8396 56.2503 50.0037C56.2547 50.1678 56.2913 50.3294 56.3581 50.4794C56.4249 50.6293 56.5206 50.7647 56.6397 50.8776C56.7588 50.9906 56.899 51.079 57.0523 51.1378C57.2056 51.1966 57.3689 51.2246 57.533 51.2203C57.6971 51.2159 57.8588 51.1793 58.0087 51.1125C65.5822 47.6541 72.1868 42.3829 77.2387 35.765ZM40 75C37.3487 74.997 34.8069 73.9425 32.9322 72.0678C31.0575 70.1931 30.003 67.6513 30 65H50C49.997 67.6513 48.9425 70.1931 47.0678 72.0678C45.1931 73.9425 42.6512 74.997 40 75ZM53.75 56.25C53.75 56.5815 53.6183 56.8995 53.3839 57.1339C53.1495 57.3683 52.8315 57.5 52.5 57.5H27.5C27.1685 57.5 26.8505 57.3683 26.6161 57.1339C26.3817 56.8995 26.25 56.5815 26.25 56.25C26.25 55.9185 26.3817 55.6005 26.6161 55.3661C26.8505 55.1317 27.1685 55 27.5 55H52.5C52.8315 55 53.1495 55.1317 53.3839 55.3661C53.6183 55.6005 53.75 55.9185 53.75 56.25ZM36.7875 41.7675C35.2541 41.035 34.0149 39.8035 33.2729 38.2747C32.5309 36.7459 32.3301 35.0104 32.7034 33.3525C33.0767 31.6946 34.0019 30.2127 35.3276 29.1494C36.6532 28.0861 38.3006 27.5046 40 27.5C40.2187 27.5 40.4375 27.51 40.6537 27.5288C40.1132 28.4805 39.8998 29.5833 40.0465 30.668C40.1931 31.7527 40.6916 32.7593 41.4655 33.5334C42.2394 34.3074 43.2459 34.8061 44.3306 34.9529C45.4153 35.0998 46.5182 34.8867 47.47 34.3462C47.49 34.5625 47.5 34.7812 47.5 35C47.4942 36.4171 47.0888 37.8038 46.3304 39.0009C45.572 40.198 44.4913 41.1569 43.2125 41.7675C42.9998 41.8688 42.82 42.0282 42.694 42.2272C42.5679 42.4263 42.5007 42.6569 42.5 42.8925V52.5H37.5V42.8963C37.5 42.66 37.4331 42.4286 37.307 42.2288C37.1809 42.029 37.0008 41.8691 36.7875 41.7675Z" fill="white"/>
<path id="Vector_12" d="M65.8868 52.0078C65.7807 51.8823 65.6509 51.779 65.5048 51.7037C65.3588 51.6283 65.1993 51.5825 65.0355 51.5688C64.8717 51.5551 64.7068 51.5738 64.5503 51.6238C64.3937 51.6739 64.2486 51.7542 64.1231 51.8603C63.9976 51.9665 63.8942 52.0963 63.8189 52.2423C63.7436 52.3884 63.6977 52.5479 63.684 52.7117C63.6703 52.8755 63.689 53.0403 63.7391 53.1969C63.7891 53.3534 63.8695 53.4986 63.9756 53.6241L67.2618 57.5278C67.3677 57.6533 67.4973 57.7567 67.6431 57.8322C67.7889 57.9076 67.9482 57.9536 68.1118 57.9674C68.2754 57.9813 68.4402 57.9628 68.5966 57.913C68.7531 57.8632 68.8982 57.7831 69.0237 57.6772C69.1492 57.5713 69.2526 57.4418 69.328 57.2959C69.4035 57.1501 69.4494 56.9908 69.4633 56.8272C69.4772 56.6636 69.4587 56.4989 69.4089 56.3424C69.3591 56.186 69.279 56.0408 69.1731 55.9153L65.8868 52.0078Z" fill="white"/>
<path id="Vector_13" d="M73.3559 45.6491C73.2312 45.5369 73.0851 45.4508 72.9265 45.3962C72.7678 45.3416 72.5998 45.3195 72.4324 45.3312C72.265 45.3429 72.1017 45.3882 71.9521 45.4643C71.8026 45.5405 71.67 45.646 71.5621 45.7745C71.4542 45.903 71.3733 46.052 71.3242 46.2124C71.2751 46.3729 71.2588 46.5416 71.2763 46.7085C71.2938 46.8754 71.3448 47.037 71.4261 47.1838C71.5074 47.3306 71.6174 47.4595 71.7496 47.5629L75.6246 50.8129C75.8794 51.0168 76.2039 51.113 76.5288 51.0809C76.8536 51.0488 77.1529 50.8909 77.3629 50.6409C77.5728 50.391 77.6766 50.0689 77.6522 49.7434C77.6278 49.4179 77.477 49.1149 77.2321 48.8991L73.3559 45.6491Z" fill="white"/>
<path id="Vector_14" d="M14.1161 52.0081L10.8298 55.9106C10.616 56.164 10.5116 56.492 10.5396 56.8225C10.5676 57.1529 10.7258 57.4586 10.9792 57.6725C11.2327 57.8863 11.5607 57.9907 11.8911 57.9627C12.2215 57.9347 12.5273 57.7765 12.7411 57.5231L16.0273 53.6243C16.1356 53.4992 16.2179 53.3538 16.2695 53.1965C16.3211 53.0393 16.341 52.8734 16.328 52.7084C16.315 52.5435 16.2694 52.3827 16.1938 52.2355C16.1182 52.0883 16.0141 51.9576 15.8876 51.8509C15.7611 51.7443 15.6146 51.6638 15.4568 51.6142C15.2989 51.5645 15.1327 51.5468 14.968 51.5618C14.8032 51.5769 14.643 51.6246 14.4968 51.702C14.3505 51.7795 14.2211 51.8852 14.1161 52.0131V52.0081Z" fill="white"/>
<path id="Vector_15" d="M6.68375 45.6174L2.98625 48.4724C2.85054 48.5706 2.73594 48.695 2.64925 48.8383C2.56256 48.9816 2.50554 49.1408 2.4816 49.3066C2.45765 49.4723 2.46725 49.6412 2.50984 49.8032C2.55243 49.9651 2.62713 50.1169 2.72951 50.2494C2.83189 50.382 2.95985 50.4926 3.10581 50.5747C3.25177 50.6568 3.41275 50.7088 3.57918 50.7275C3.74561 50.7462 3.9141 50.7313 4.07464 50.6836C4.23519 50.6359 4.38451 50.5564 4.51375 50.4499L8.21125 47.5949C8.34696 47.4968 8.46156 47.3724 8.54825 47.2291C8.63495 47.0858 8.69196 46.9265 8.71591 46.7608C8.73986 46.595 8.73025 46.4261 8.68766 46.2642C8.64508 46.1022 8.57038 45.9504 8.468 45.8179C8.36562 45.6854 8.23765 45.5747 8.09169 45.4926C7.94573 45.4105 7.78475 45.3585 7.61832 45.3398C7.4519 45.3211 7.28341 45.3361 7.12286 45.3838C6.96232 45.4314 6.81299 45.5109 6.68375 45.6174Z" fill="white"/>
</g>
</g>
</g>
</svg>
